<svg width="23" height="24" viewBox="0 0 23 24" fill="none" xmlns="http://www.w3.org/2000/svg">
<path fill-rule="evenodd" clip-rule="evenodd" d="M19.567 3.52266C20.6122 4.5657 21.4513 5.79971 22.0396 7.15896C22.6506 8.55812 22.9771 10.0668 22.9998 11.5955V20.1317C23.0042 20.557 22.9243 20.9788 22.765 21.3726C22.6057 21.7664 22.3701 22.1241 22.072 22.4248C21.7739 22.7255 21.4193 22.9632 21.029 23.124C20.6387 23.2847 20.2205 23.3652 19.799 23.3608C19.2496 23.3742 18.7072 23.235 18.231 22.9584C17.9319 22.7717 17.6738 22.0889 17.4567 21.5145C17.3472 21.2247 17.2481 20.9625 17.1594 20.8056C15.9347 22.4717 15.4013 22.7056 14.4735 22.9677C12.0104 23.6297 9.39887 23.4453 7.0512 22.4436C5.69111 21.8546 4.45271 21.0132 3.40037 19.9632C2.35177 18.9105 1.5125 17.6651 0.927822 16.2942C0.312042 14.8747 -0.00392999 13.3415 3.68935e-05 11.7921C-0.00369676 10.2382 0.312224 8.70038 0.927822 7.27596C2.10775 4.50269 4.30045 2.29397 7.0512 1.10783C8.45832 0.486996 9.97806 0.16825 11.5139 0.171841C13.0349 0.162411 14.5416 0.469904 15.9394 1.07507C17.2894 1.65534 18.5199 2.48551 19.567 3.52266ZM18.732 15.4377C18.7506 12.9792 18.7599 10.5191 18.7599 8.0575C18.7262 7.93746 18.7378 7.80911 18.7923 7.69715C18.6966 7.55426 18.6357 7.62808 18.5782 7.6977C18.566 7.71244 18.554 7.727 18.5418 7.73927L17.4795 8.78757L17.4146 8.83905L17.3682 8.88585L17.2986 8.94201L17.2383 9.00285L16.9507 9.293L16.9043 9.3398L15.726 10.4677C15.6956 10.4493 15.705 10.4067 15.7152 10.3612C15.7205 10.3372 15.726 10.3124 15.726 10.2898V8.78757C15.7498 8.57194 15.7388 8.35385 15.6935 8.14174C15.5535 7.81621 15.3143 7.54412 15.0107 7.3649C14.7071 7.18567 14.3549 7.10863 14.005 7.14492H6.42031H6.36464L5.859 7.37892L5.51572 7.76735L5.27913 8.28214C5.27475 8.3293 5.26899 8.37739 5.26315 8.42612C5.25045 8.53212 5.23738 8.64112 5.23738 8.75013V14.5392C5.22257 14.6321 5.23217 14.7273 5.26522 14.8153V15.0867L5.49253 15.5969C5.65197 15.782 5.83993 15.94 6.0492 16.0648C6.07879 16.08 6.10207 16.1052 6.11483 16.1361C6.12759 16.167 6.12899 16.2015 6.11878 16.2333C6.30247 16.1624 6.50567 16.1624 6.68937 16.2333H14.2787C14.6013 16.2235 14.912 16.1075 15.1632 15.9031C15.4145 15.6986 15.5926 15.4169 15.6703 15.1008C15.7151 14.8887 15.7322 14.6716 15.7214 14.455V12.8919L18.6532 15.8074H18.7599L18.732 15.5781V15.4377Z" fill="#DE4D20"/>
</svg>
